<?xml version="1.0" encoding="utf-8" ?><svg xmlns="http://www.w3.org/2000/svg" xmlns:xlink="http://www.w3.org/1999/xlink" width="1344" height="768" viewBox="0 0 1344 768"><path fill="#091415" d="M333.59 325.053L334.204 326.752C339.336 329.137 393.709 334.341 402.325 333.977C405.797 333.83 414.418 332.37 418.191 332.244L419.887 331.436L419.779 329.956C418.576 329.548 417.81 329.412 416.895 328.524L417.321 326.88L418.484 327.338C443.628 333.31 469.418 346.677 481.726 369.737C497.03 398.413 504.017 438.845 514.318 470.007C522.294 469.923 544.365 469.319 551.089 470.245C549.199 470.955 548.215 471.276 546.25 471.728C538.117 471.925 522.482 472.257 514.677 471.673L517.723 482.948C524.908 482.664 531.205 482.662 538.362 482.758C540.701 484.406 545.733 482.808 547.735 483.758C550.414 484.091 553.465 484.435 556.026 484.282C561.427 483.96 568.901 481.468 573.18 486.225C576.587 490.012 569.876 496.925 567.378 499.079L570.663 500.183C572.383 504.916 573.362 506.287 572.034 511.136L567.8 513.457C564.309 514.38 563.454 514.541 559.866 514.614L561.689 517.689C567.739 526.785 557.738 530.414 550.541 530.121L550.623 534.343C551.905 540.318 547.126 543.834 541.758 544.151C539.724 544.488 539.017 544.598 537.103 545.336C536.026 549.37 553.462 608.335 556.111 615.888C557.085 612.858 558.051 609.293 558.786 606.175C563.7 585.315 570.928 564.547 575.631 543.697C573.571 537.833 565.379 518.022 567.8 513.457C571.827 516.533 576.946 533.825 577.642 539.339C578.381 545.198 558.835 614.152 555.461 624.659L554.285 627.219C549.859 628.83 493.547 628.682 486.081 628.058C484.428 626.687 484.68 625.91 484.006 623.474L483.235 624.406C482.267 622.288 480.106 612.29 479.438 609.429C479.173 614.197 479.074 619.566 478.019 624.176L476.846 623.658C476.309 626.075 476.641 626.815 475.047 627.92C467.338 628.764 391.635 629.045 389.096 627.222L388.686 625.7L388.279 626.477C387.716 625.463 387.764 622.708 387.707 621.397C387.534 622.929 387.303 627.073 386.438 627.985C379.493 628.693 368.861 628.339 361.5 628.321L321.019 628.286L256.15 628.207C249.79 628.198 232.141 629.402 227.521 627.265L226.483 625.922L226.804 623.632L226.143 622.138L227.761 614.145C199.593 619.133 174.469 614.656 165.621 583.047C161.65 568.86 171.218 543.219 175.596 528.784L190.686 479.063L207.573 422.799C210.597 412.654 214 399.991 217.516 390.308C219.543 384.642 222.138 379.195 225.263 374.052C247.71 337.484 286.143 323.939 326.546 327.07C328.368 327.211 331.393 327.218 333.156 326.799L333.59 325.053ZM545.392 483.784C539.955 483.566 522.287 483.034 517.727 484.378C523.501 484.613 540.663 484.86 545.392 483.784Z"/><path fill="#00308D" fill-opacity="0.98431373" d="M517.727 484.378C522.287 483.034 539.955 483.566 545.392 483.784C540.663 484.86 523.501 484.613 517.727 484.378Z"/><path fill="#003EB3" d="M547.735 483.758C550.414 484.091 553.465 484.435 556.026 484.282C561.427 483.96 568.901 481.468 573.18 486.225C576.587 490.012 569.876 496.925 567.378 499.079L570.663 500.183C572.383 504.916 573.362 506.287 572.034 511.136L567.8 513.457C564.309 514.38 563.454 514.541 559.866 514.614L561.689 517.689C567.739 526.785 557.738 530.414 550.541 530.121L550.623 534.343C551.905 540.318 547.126 543.834 541.758 544.151C535.936 543.564 527.783 544.019 521.755 544.185C508.356 552.14 494.439 564.342 480.659 571.129C472.819 574.991 453.771 576.312 444.237 577.523L393.553 584.078C382.247 585.553 369.125 586.938 358.199 589.524C361.223 567.829 363.353 543.458 365.757 521.496C383.205 518.693 400.668 515.986 418.146 513.376C431.618 511.365 449.322 509.422 461.898 504.931C472.321 501.209 483.118 492.445 493.702 488.007C503.145 484.048 507.731 484.439 517.727 484.378C523.501 484.613 540.663 484.86 545.392 483.784L547.735 483.758Z"/><path fill="#12213C" d="M511.51 513.555C520.614 513.228 551.717 512.57 559.866 514.614L561.689 517.689C558.78 517.188 556.458 516.283 553.434 515.894C539.913 514.156 525.504 514.562 511.909 515.309C507.505 518.375 504.177 520.792 499.393 523.221C499.827 521.34 509.567 514.871 511.51 513.555Z"/><path fill="#12213C" d="M500.328 539.126C503.523 535.187 509.788 530.09 514.618 529.566C519.813 529.002 547.628 528.125 550.541 530.121L550.623 534.343C541.54 528.476 525.057 530.195 514.01 530.415C509.877 532.725 504.413 536.485 500.328 539.126Z"/><path fill="#12213C" d="M508 498.283C521.01 497.955 534.211 498.342 547.238 498.157C551.467 498.097 556.633 497.992 560.782 498.55L560.663 498.926C558.627 499.916 548.046 499.574 545.071 499.571L508.75 499.51C506.781 500.806 501.332 504.723 499.07 504.427L499.03 504.838L499.22 504.131L499.759 504.493L499.926 503.496C501.771 501.939 505.8 499.631 508 498.283Z"/><path fill="#00B79F" d="M481.145 573.592C493.622 564.795 511.426 550.85 525.523 545.92C527.067 545.381 532.404 545.411 534.312 545.414C541.145 569.697 549.254 593.848 554.377 618.543C554.794 620.552 555.019 622.672 555.461 624.659L554.285 627.219C549.859 628.83 493.547 628.682 486.081 628.058C484.428 626.687 484.68 625.91 484.006 623.474C479.095 599.734 479.601 598.345 481.145 573.592Z"/><path fill="#00B79F" d="M391.088 585.894C404.372 584.624 417.556 582.561 430.799 580.869C447.186 578.776 463.468 577.096 479.699 573.968C479.101 590.026 477.754 607.474 476.846 623.658C476.309 626.075 476.641 626.815 475.047 627.92C467.338 628.764 391.635 629.045 389.096 627.222L388.686 625.7C390.41 616.067 390.454 596.579 391.088 585.894Z"/><path fill="#00B79F" d="M358.675 590.43C368.716 589.303 379.167 587.669 389.208 586.229C389.197 597.261 388.314 610.316 387.707 621.397C387.534 622.929 387.303 627.073 386.438 627.985C379.493 628.693 368.861 628.339 361.5 628.321L321.019 628.286L256.15 628.207C249.79 628.198 232.141 629.402 227.521 627.265L226.483 625.922L226.804 623.632C227.522 621.863 228.939 616.045 229.511 613.926C271.414 609.484 315.673 603.414 357.449 597.868L358.675 590.43Z"/><path fill="#00B79F" d="M419.887 331.436C421.868 330.852 422.52 330.556 424.598 330.851C426.341 332.218 426.162 333.4 425.687 335.601C423.027 347.946 419.618 360.575 416.157 372.708C411.461 360.735 407.642 347.865 402.4 336.287C408.901 335.357 412.111 335.035 418.191 332.244L419.887 331.436Z"/><path fill="#00B79F" d="M300.427 328.8C303.982 327.664 327.825 327.67 331.29 328.596C344.066 340.821 361.503 363.453 373.881 377.682C382.886 364.551 391.761 351.331 400.503 338.024L394.309 476.308C393.761 489.513 392.709 502.565 392.412 515.804C383.754 517.442 374.946 518.434 366.084 520.182L366.717 511.435L274.387 524.072C281.06 500.084 287.97 476.164 295.116 452.314C298.443 440.994 303.989 423.974 306.18 412.774C301.739 421.191 295.478 444.89 292.494 455.003C285.771 477.789 278.645 501.291 272.988 524.319C265.727 524.775 254.731 526.349 247.889 528.65C268.656 527.876 297.243 522.045 318.61 519.686C314.547 545.945 311.896 575.71 308.949 602.408C287.716 605.191 266.469 607.857 245.207 610.406C226.11 612.882 201.203 619.793 184.516 608.137C154.661 587.282 168.296 558.272 176.619 530.685L192.644 477.369L207.659 427.22C211.356 414.648 214.946 401.226 219.545 389.008C222.095 382.131 225.552 375.625 229.825 369.663C247.986 344.671 270.571 333.491 300.427 328.8Z"/><path fill="#066A63" d="M300.427 328.8C303.982 327.664 327.825 327.67 331.29 328.596C325.412 329.359 306.931 328.844 300.427 328.8Z"/><path fill="#00B79F" d="M428.36 331.788C442.606 334.863 463.807 348.954 473.636 360.326C496.546 386.833 490.801 407.995 489.064 439.99C488.149 456.839 487.423 473.538 486.296 490.275C479.614 494.094 465.616 502.515 459.216 504.638C447.309 508.588 429.259 510.283 416.235 512.41L394.202 515.611C394.918 489.232 396.693 462.796 397.542 436.417C398.59 403.845 401.42 371.026 401.698 338.462C407.106 351.685 411.101 365.672 416.821 378.821C420.156 363.372 424.493 347.179 428.36 331.788Z"/><path fill="#091415" d="M415.328 420.844C436.35 421.101 457.374 421.004 478.393 420.554C478.806 440.444 481.642 461.486 469.105 477.855C462.679 483.587 456.066 487.105 447.304 487.018C409.338 486.639 414.567 446.828 415.328 420.844Z"/><path fill="#00B79F" d="M473.483 422.403C474.946 422.375 476.37 422.737 476.432 424.487C477.188 445.647 480.634 478.429 453.626 484.816C444.638 486.942 435.409 484.438 427.835 479.503C427.149 478.901 426.492 478.266 425.865 477.602C413.528 464.522 416.307 439.455 416.757 422.609C435.666 422.691 454.575 422.623 473.483 422.403Z"/><path fill="#00B79F" d="M362.543 513.613C363.628 513.569 363.076 513.477 364.143 514.303C365.599 520.538 357.459 584.802 356.136 596.443L313.154 601.922L311.46 601.725C310.386 599.584 318.93 528.808 319.773 519.47C334.015 517.415 348.272 515.462 362.543 513.613Z"/><path fill="#00B79F" d="M333.66 328.775C340.317 329.124 350.118 330.608 357.026 331.385C371.269 332.913 385.501 334.55 399.72 336.295C395.707 343.598 389.049 353.062 384.299 360.126C380.883 365.238 377.369 370.284 373.759 375.26C361.668 359.988 347.132 342.772 333.66 328.775Z"/><path fill="#00B79F" d="M492.946 404.207C494.608 405.684 513.872 475.171 516.32 483.094L504.532 483.071C497.412 483.074 494.227 485.5 488.194 489.019C488.653 469 490.192 448.726 491.022 428.699C491.344 420.936 491.751 411.818 492.946 404.207Z"/><path fill="#F4F2ED" d="M1040.93 361.356C1050.62 363.565 1061.74 365.335 1071.07 368.037C1098.19 375.596 1121.57 392.868 1136.77 416.562C1144.47 428.789 1148.21 440.294 1152.2 454.059C1159.64 479.662 1165.46 505.873 1173.52 531.269C1167.45 532.29 1160.95 533.264 1154.93 534.448L1156.82 535.373L1154.94 535.805C1153.54 539.088 1154.33 551.867 1154.08 556.462C1154.76 600.163 1154.22 644.688 1154.3 688.458C1093.88 688.178 1033.46 688.204 973.037 688.536C942.368 688.481 905.872 686.64 875.9 688.226C876.792 678.089 878.923 665.94 880.6 655.755C881.124 653.719 881.586 652.552 881.168 650.453C873.474 646.466 869.823 647.183 860.196 640.888L862.835 641.106L864.626 641.738C866.205 641.272 866.883 640.711 867.695 639.159C877.801 619.851 890.312 550.597 886.096 531.536L886.543 530.346C880.34 528.543 874.104 526.858 867.837 525.291C865.206 521.741 862.236 517.889 859.765 514.28L881.149 458.268C887.089 442.856 893.128 425.298 901.429 411.074C912.669 391.814 933.234 374.101 954.3 366.62C965.453 391.749 987.153 397.668 1011.43 386.835C1023.59 381.482 1033.86 372.607 1040.93 361.356Z"/><path fill="#FE8033" d="M1077.44 551.698L1129.52 555.838C1136.68 556.453 1146.19 557.003 1153.16 558.082C1151.63 563.347 1152.35 588.853 1152.24 596.073C1151.82 625.978 1152.95 656.989 1152.3 686.841C1142.19 685.994 1123.85 686.584 1113.24 686.569C1104.02 686.556 1085.38 686.08 1076.9 686.93C1076.89 673.796 1076.12 554.527 1077.44 551.698Z"/><path fill="#12213C" d="M886.543 530.346C890.22 531.437 894.905 533.062 898.637 533.243C899.76 532.47 899.589 532.89 900.028 531.901L901.129 533.294L882.355 655.753L880.6 655.755C881.124 653.719 881.586 652.552 881.168 650.453C873.474 646.466 869.823 647.183 860.196 640.888L862.835 641.106L864.626 641.738C866.205 641.272 866.883 640.711 867.695 639.159C877.801 619.851 890.312 550.597 886.096 531.536L886.543 530.346Z"/><path fill="#12213C" d="M1064.77 551.741C1060.42 529.071 1055.87 506.441 1051.1 483.854C1048.58 471.603 1044.38 453.9 1043.6 441.978C1046.59 451.372 1050.01 470.313 1052.1 480.588L1066.1 550.404C1092.51 544.616 1128.25 538.205 1154.93 534.448L1156.82 535.373L1154.94 535.805C1153.54 539.088 1154.33 551.867 1154.08 556.462L1153.16 558.082C1146.19 557.003 1136.68 556.453 1129.52 555.838L1077.44 551.698C1077.2 551.569 1075.48 551.153 1075.1 551.053C1072.49 550.853 1067.54 551.477 1064.77 551.741Z"/><path fill="#2B2422" d="M1075.1 551.053C1075.48 551.153 1077.2 551.569 1077.44 551.698C1076.12 554.527 1076.89 673.796 1076.9 686.93C1085.38 686.08 1104.02 686.556 1113.24 686.569C1123.85 686.584 1142.19 685.994 1152.3 686.841C1152.95 656.989 1151.82 625.978 1152.24 596.073C1152.35 588.853 1151.63 563.347 1153.16 558.082L1154.08 556.462C1154.76 600.163 1154.22 644.688 1154.3 688.458C1093.88 688.178 1033.46 688.204 973.037 688.536C942.368 688.481 905.872 686.64 875.9 688.226C876.792 678.089 878.923 665.94 880.6 655.755L882.355 655.753C880.754 666.035 879.244 676.331 877.823 686.639L1075.28 686.617C1074.97 641.43 1074.91 596.241 1075.1 551.053Z"/><path fill="#704B30" d="M1076.9 686.93C1085.38 686.08 1104.02 686.556 1113.24 686.569C1123.85 686.584 1142.19 685.994 1152.3 686.841C1145.06 687.872 1084.66 688.056 1076.9 686.93Z"/><path fill="#2B2422" d="M900.028 531.901C902.015 513.371 905.711 493.199 908.522 474.655C909.605 467.513 912.317 449.328 913.978 443.454C914.458 448.922 911.275 467.783 910.316 474.136C907.366 493.873 904.303 513.592 901.129 533.294L900.028 531.901Z"/><path fill="#12213C" d="M387.707 621.397C387.764 622.708 387.716 625.463 388.279 626.477L388.686 625.7L389.096 627.222C391.635 629.045 467.338 628.764 475.047 627.92C476.641 626.815 476.309 626.075 476.846 623.658L478.019 624.176C478.836 627.096 478.215 626.161 480.172 628.091L481.659 628.3C483.417 626.78 482.894 627.292 483.235 624.406L484.006 623.474C484.68 625.91 484.428 626.687 486.081 628.058C493.547 628.682 549.859 628.83 554.285 627.219C554.441 629.878 554.471 630.117 555.878 632.005C561.317 634.541 652.09 633.466 663.572 632.717L667.173 628.215C686.588 628.025 706.004 628.014 725.42 628.183C738.588 628.183 751.801 628.004 764.955 628.474C777.101 628.908 786.78 634.759 791.887 645.94C795.196 653.116 795.397 661.339 792.444 668.668C789.543 676.176 783.726 682.19 776.319 685.337C772.672 686.907 768.156 687.636 764.207 687.656C731.269 687.825 698.189 687.751 665.262 687.752L469.562 687.759L250.008 687.779C209.525 687.837 168.999 688.579 128.538 687.835C122.947 687.616 116.999 687.704 111.815 685.347C87.9452 676.223 87.8728 636.42 113.948 630.597C139.892 624.804 172.979 628.979 199.64 628.382C207.52 628.205 217.26 630.197 224.377 627.328C225.721 626.145 225.791 624.053 226.143 622.138L226.804 623.632L226.483 625.922L227.521 627.265C232.141 629.402 249.79 628.198 256.15 628.207L321.019 628.286L361.5 628.321C368.861 628.339 379.493 628.693 386.438 627.985C387.303 627.073 387.534 622.929 387.707 621.397Z"/><path fill="#FE8033" d="M908.257 209.442C889.958 202.929 873.7 190.086 880.753 168.532C883.153 161.311 889.711 154.71 896.665 151.759C918.754 142.386 943.063 147.81 966.134 146.686C1000.21 145.025 1036.76 143.422 1053.46 179.615C1056.73 186.645 1058.42 194.303 1058.42 202.054C1058.34 221.619 1044.75 256.368 1039.81 276.587C1038.74 280.968 1034.98 290.784 1035.47 294.812L1033.89 295.498C1039.08 317.368 1043.71 340.396 1049.17 361.931C1043.36 360.792 1037.58 359.579 1031.8 358.291C1026.49 365.21 1022.62 369.467 1015.16 374.438C998.278 385.688 972.537 385.68 963.879 364.35C963.08 362.383 962.479 360.008 961.824 357.925L961.263 358.055C959.463 351.392 959.682 334.008 956.181 331.086C945.528 333.256 929.756 327.071 922.169 319.709C916.934 314.561 913.25 308.046 911.536 300.905C908.575 288.935 909.547 266.219 909.239 253.219C908.897 238.787 908.519 223.872 908.257 209.442Z"/><path fill="#12213C" d="M908.257 209.442C889.958 202.929 873.7 190.086 880.753 168.532C883.153 161.311 889.711 154.71 896.665 151.759C918.754 142.386 943.063 147.81 966.134 146.686C1000.21 145.025 1036.76 143.422 1053.46 179.615C1056.73 186.645 1058.42 194.303 1058.42 202.054C1058.34 221.619 1044.75 256.368 1039.81 276.587C1038.74 280.968 1034.98 290.784 1035.47 294.812L1033.89 295.498C1033.04 289.517 1027.69 271.2 1025.9 263.392C1026.3 263.092 1026.69 262.78 1027.07 262.457C1037.47 253.725 1047.83 232.621 1026.17 227.576C1020.63 226.288 1013.12 232.6 1008.93 236.345C1008.42 236.13 1007.91 235.902 1007.41 235.663C990.209 227.488 984.912 214.006 979.019 197.423C961.295 220.525 934.646 216.013 909.973 210.063L908.257 209.442Z"/><path fill="#F4F2ED" d="M889.592 165.113C892.734 166.62 901.009 177.34 909.328 181.152C918.02 185.135 928.365 183.623 933.059 186.122C919.067 189.175 894.6 179.598 889.592 165.113Z"/><path fill="#12213C" d="M956.498 329.771C974.988 325.418 980.614 323.11 997.528 313.923C990.125 324.163 965.132 351.09 961.824 357.925L961.263 358.055C959.463 351.392 959.682 334.008 956.181 331.086L956.498 329.771Z"/><path fill="#3B1D11" d="M908.257 209.442L909.973 210.063C910.14 217.079 910.231 224.098 910.244 231.116C913.83 229.661 923.332 225.293 925.368 230.669C923.595 231.504 918.857 230.204 916.42 230.53C914.239 230.823 912.357 231.362 910.268 232.004L910.942 265.916C911.077 275.705 910.816 291.918 913.304 300.934C915.078 307.604 918.621 313.671 923.559 318.493C932.753 327.417 944.114 329.896 956.498 329.771L956.181 331.086C945.528 333.256 929.756 327.071 922.169 319.709C916.934 314.561 913.25 308.046 911.536 300.905C908.575 288.935 909.547 266.219 909.239 253.219C908.897 238.787 908.519 223.872 908.257 209.442Z"/><path fill="#2B2422" d="M933.351 238.112L933.858 238.435C934.071 240.3 925.764 264.425 924.659 267.752C928.211 267.719 935.369 267.375 938.396 268.713L938.547 269.682C933.393 269.917 927.289 269.781 922.062 269.792C925.389 259.13 928.612 248.228 933.351 238.112Z"/><path fill="#2B2422" d="M1029.73 236.127L1030.62 236.457C1030.43 237.846 1023.61 242.672 1020.76 246.597C1021.9 246.766 1023.04 246.953 1024.17 247.157C1026.22 247.532 1028.95 248.206 1030.21 250.038C1028.48 250.436 1026.86 249.389 1025.12 248.603C1022.95 249.079 1021.52 249.099 1020.13 250.733C1020.18 252.643 1020.31 253.263 1019.75 255.049L1018.86 254.656C1016.45 246.096 1023.3 240.159 1029.73 236.127Z"/><path fill="#12213C" d="M918.053 242.528C925.13 244.956 923.615 248.362 920.65 253.761C920.151 253.51 919.658 253.246 919.172 252.971C913.73 249.862 915.523 246.811 918.053 242.528Z"/><path fill="#12213C" d="M947.027 242.488C949.761 242.98 950.461 243.754 951.803 245.938C952.252 248.819 951.449 250.392 950.474 253.146C942.993 251.702 944.019 248.051 947.027 242.488Z"/><path fill="#2B2422" d="M958.582 281.479L959.293 282.057L959.111 283.323C954.995 287.564 949.45 289.043 943.751 289.81L943.264 289.242C943.677 287.929 947.887 287.105 949.467 286.585C953.3 285.323 955.401 283.907 958.582 281.479Z"/><path fill="#2B2422" d="M944.14 228.551C945.252 228.457 946.367 228.405 947.484 228.394C951.223 228.342 953.64 228.242 956.423 230.973L955.887 231.661C952.612 230.657 944.718 230.747 943.757 230.049L944.14 228.551Z"/><path fill="#091415" fill-opacity="0.98823529" d="M1033.89 295.498L1035.47 294.812C1037.78 306.882 1040.85 319.032 1043.83 330.971L1145.07 331.053C1176.67 331.112 1222.88 324.02 1234.52 362.643C1238.61 376.178 1236.94 407.472 1236.86 422.938C1267.13 425.632 1259.01 447.569 1259.39 470.383C1263.5 470.99 1272.6 470.745 1277.13 470.736C1268.19 473.578 1174.14 471.522 1158.93 471.887C1164.31 492.076 1169.81 512.232 1175.44 532.355C1168.95 533.686 1163.4 534.494 1156.82 535.373L1154.93 534.448C1160.95 533.264 1167.45 532.29 1173.52 531.269C1165.46 505.873 1159.64 479.662 1152.2 454.059C1148.21 440.294 1144.47 428.789 1136.77 416.562C1121.57 392.868 1098.19 375.596 1071.07 368.037C1061.74 365.335 1050.62 363.565 1040.93 361.356C1033.86 372.607 1023.59 381.482 1011.43 386.835C987.153 397.668 965.453 391.749 954.3 366.62C933.234 374.101 912.669 391.814 901.429 411.074C893.128 425.298 887.089 442.856 881.149 458.268L859.765 514.28C862.236 517.889 865.206 521.741 867.837 525.291C874.104 526.858 880.34 528.543 886.543 530.346L886.096 531.536C884.998 531.489 880.378 530.267 879.032 529.935L877.182 542.066C869.713 533.334 857.482 514.046 850.356 503.639C833.693 479.306 814.598 453.301 799.724 427.987L800.074 427.169C808.197 427.564 817.527 427.213 825.692 426.982C823.052 407.167 821.792 386.867 818.855 367.081C817.858 360.369 817.729 348.94 812.795 344.598C809.359 341.573 810.331 335.83 810.464 331.618C819.569 332.518 829.369 332.124 838.551 332.165C855.555 332.241 872.676 331.631 889.664 331.803C889.823 335.874 890.363 340.727 888.255 344.234C887.754 341.634 888.025 336.29 888.077 333.448L811.817 333.443L811.76 343.986L858.632 343.96C867.807 343.966 879.248 343.682 888.255 344.234C884.109 347.018 883.613 349.879 882.799 355.228C879.22 378.736 876.567 403.661 874.44 427.335L891.806 427.249C901.829 401.963 921.483 379.265 946.645 368.209C949.898 366.78 959.51 363.553 961.218 361.367C961.316 360.116 961.43 359.32 961.263 358.055L961.824 357.925C962.479 360.008 963.08 362.383 963.879 364.35C972.537 385.68 998.278 385.688 1015.16 374.438C1022.62 369.467 1026.49 365.21 1031.8 358.291C1037.58 359.579 1043.36 360.792 1049.17 361.931C1043.71 340.396 1039.08 317.368 1033.89 295.498ZM829.035 470.29C844.312 470.471 859.591 470.422 874.867 470.142L878.441 460.957L890.878 428.889C863.373 429.189 834.461 427.885 807.024 428.929L803.327 429.234L802.787 429.973C805.553 436.264 824.137 463.651 829.035 470.29ZM858.461 512.151C859.916 508.723 861.803 504.593 862.979 501.125C866.721 491.438 870.404 481.728 874.027 471.996C859.37 471.822 844.712 471.795 830.055 471.916C840.007 484.877 848.683 499.15 858.461 512.151ZM876.322 536.4C876.943 533.981 877.746 532.186 876.871 529.968C875.187 528.335 871.797 527.979 869.343 527.474C870.99 530.418 872.746 534.032 875.135 536.319C875.737 536.427 875.94 536.587 876.322 536.4Z"/><path fill="#00B79F" d="M1044.15 332.792C1089.35 332.737 1134.59 332.864 1179.8 332.623C1195.79 332.538 1211.04 333.578 1222.72 345.811C1228.46 351.915 1232.48 359.431 1234.37 367.595C1236.75 377.604 1235.85 411.564 1235.62 423.41L1142.76 423.292L1134.63 410.186C1141.5 410.352 1204.46 410.89 1206.25 409.438L1205.03 408.989C1200.42 408.644 1195.43 408.623 1190.77 408.514C1207.31 397.281 1212.36 376.673 1194.95 363.835C1189.29 359.626 1182.16 357.878 1175.19 358.986C1157.09 361.908 1148.83 383.444 1158.49 398.373C1161.55 403.106 1165.77 405.803 1170.34 408.872C1159.39 408.853 1148.19 409.057 1137.3 408.218C1142.3 404.417 1146.26 400.758 1149.02 394.986C1151.88 389.122 1152.29 382.361 1150.15 376.197C1147.85 369.685 1143.05 364.358 1136.81 361.396C1130.49 358.382 1123.22 358.02 1116.63 360.391C1107.19 363.888 1103.65 370.59 1099.79 379.007C1093.11 371.132 1088.08 360.331 1076.57 358.834C1065.9 357.446 1061.33 363.538 1050.42 362.214C1048.19 352.636 1046.2 342.453 1044.15 332.792Z"/><path fill="#00B79F" d="M1143.77 424.876L1228.72 424.978C1239.88 425.063 1254.27 423.111 1257.08 437.045C1259.32 448.165 1258.56 459.33 1258.22 470.585C1252.28 471.27 1232.51 470.784 1225.5 470.771L1158.07 470.645C1153.68 453.31 1150.41 441.474 1143.77 424.876Z"/><path fill="#F4F2ED" d="M818.318 345.412L882.961 345.423C878.987 366.746 876.305 396.521 873.571 418.756C873.373 421.453 872.937 424.628 872.637 427.358L826.912 427.332C825.721 400.43 818.975 371.283 818.318 345.412Z"/><path fill="#FE8033" d="M1174.38 360.689C1187.54 357.659 1200.65 365.943 1203.56 379.133C1206.47 392.322 1198.06 405.353 1184.85 408.143C1171.81 410.898 1158.98 402.625 1156.11 389.604C1153.24 376.584 1161.39 363.68 1174.38 360.689Z"/><path fill="#FE8033" d="M1119.3 360.485C1124.11 360.196 1127.95 359.88 1132.68 361.286C1139.01 363.134 1144.3 367.509 1147.32 373.382C1150.21 379.028 1150.78 385.587 1148.88 391.644C1146.09 400.417 1140.57 403.924 1133.03 407.869C1121.44 394.026 1116.26 389.808 1101.67 379.739C1104.89 368.383 1108.91 365.001 1119.3 360.485Z"/><path fill="#F4F2ED" d="M1032.64 360.245C1033.81 360.518 1035.32 361.088 1036.49 361.496L1037.15 362.869C1036.71 364.976 1035.87 366.674 1034.38 368.229C1013.52 390.01 982.521 401.451 959.996 374.816C958.256 372.036 956.009 368.536 957.559 365.187L958.994 364.733C965.792 366.408 964.979 372.272 969.131 375.324C993.754 393.431 1016.01 379.251 1032.64 360.245Z"/><path fill="#FE8033" d="M1065.5 360.495C1076.19 359.538 1090.22 362.384 1093.58 374.357L1092.98 375.025L1091.05 374.265C1079.76 368.178 1071.09 366.327 1058.7 363.259L1065.5 360.495Z"/><path fill="#003EB3" d="M406.913 104.765C422.322 88.7395 438.592 87.7873 449.052 109.437C469.16 103.41 483.447 111.073 480.116 133.331C496.778 141.258 499.069 151.768 485.726 164.359C491.246 178.477 489.267 182.586 476.719 188.288C474.982 189.077 474.927 191.242 474.551 193.031L466.213 244.53C464.768 253.198 462.447 269.183 459.224 276.931C456.431 283.701 451.799 289.554 445.851 293.826C439.949 297.984 431.289 300.599 424.093 299.693C421.299 302.27 419.818 321.931 418.484 327.338L417.321 326.88L416.895 328.524C417.81 329.412 418.576 329.548 419.779 329.956L419.887 331.436L418.191 332.244C414.418 332.37 405.797 333.83 402.325 333.977C393.709 334.341 339.336 329.137 334.204 326.752L333.59 325.053C339.559 297.646 347.597 269.133 354.913 241.933C352.583 241.357 351.979 241.05 349.878 240.028C345.778 238.579 342.248 235.859 339.803 232.263C334.88 224.926 336.103 217.457 337.583 209.49C319.61 203.343 319.455 191.87 331.637 179.355C317.716 164.462 323.156 150.211 341.544 143.556C333.548 121.736 348.056 113.056 368.31 116.188C369.857 110.895 370.877 107.691 374.776 103.655C378.744 99.4844 384.244 97.1167 390 97.0998C397.161 97.0649 402.006 99.963 406.913 104.765Z"/><path fill="#12213C" d="M406.913 104.765C422.322 88.7395 438.592 87.7873 449.052 109.437C469.16 103.41 483.447 111.073 480.116 133.331C496.778 141.258 499.069 151.768 485.726 164.359C491.246 178.477 489.267 182.586 476.719 188.288C474.982 189.077 474.927 191.242 474.551 193.031C474.618 190.838 475.143 189.04 473.536 187.636C465.325 180.462 464.092 178.347 462.925 167.708C450.931 179.031 439.404 181.059 425.251 170.95C414.752 182.059 410.543 186.055 394.622 182.534C393.462 192.605 387.639 209.944 374.379 206.965C355.865 202.806 350.961 191.938 337.928 212.18C336.921 220.038 336.566 225.783 341.594 232.437C344.69 236.533 346.935 237.189 349.878 240.028C345.778 238.579 342.248 235.859 339.803 232.263C334.88 224.926 336.103 217.457 337.583 209.49C319.61 203.343 319.455 191.87 331.637 179.355C317.716 164.462 323.156 150.211 341.544 143.556C333.548 121.736 348.056 113.056 368.31 116.188C369.857 110.895 370.877 107.691 374.776 103.655C378.744 99.4844 384.244 97.1167 390 97.0998C397.161 97.0649 402.006 99.963 406.913 104.765Z"/><path fill="#12213C" d="M376.212 279.034C386.931 284.136 397.018 290.304 408.034 295.042C412.394 296.916 421.844 297.937 424.093 299.693C421.299 302.27 419.818 321.931 418.484 327.338L417.321 326.88C417.445 326.19 417.776 323.899 417.233 323.335C403.977 309.582 387.31 294.488 376.212 279.034Z"/><path fill="#12213C" d="M443.873 212.543C446.206 216.183 447.253 242.75 447.662 249.077L433.242 246.547L431.899 246.018L432.472 245.559C436.673 245.496 441.482 246.429 445.683 247.083C445.454 236.628 443.053 222.691 443.873 212.543Z"/><path fill="#12213C" d="M423.477 213.586C424.179 213.737 425.077 214.074 425.705 214.413C426.837 215.028 427.634 216.119 427.875 217.384C428.444 220.319 426.628 222.956 425.139 225.296C421.896 223.583 421.409 223.305 420.396 220.231C420.573 217.673 422.086 215.781 423.477 213.586Z"/><path fill="#12213C" d="M453.278 215.592C460.396 217.834 457.913 222.019 454.876 226.517C448.071 223.905 449.886 220.664 453.278 215.592Z"/><path fill="#12213C" d="M350.369 209.419C356.003 210.392 362.03 214.864 362.919 220.682C363.216 222.628 364.002 225.423 362.893 227.22C360.592 224.635 363.068 222.902 359.057 221.099C357.758 221.962 354.599 224.096 353.03 223.914C355.346 221.548 358.486 220.511 361.551 219.22C357.242 213.848 355.856 213.45 350.369 209.419Z"/><path fill="#12213C" d="M415.478 249.769C419.146 251.257 421.345 256.904 425.276 258.951C430.238 261.536 435.341 260.252 440.343 262.342C429.26 263.445 420.065 260.808 415.478 249.769Z"/><path fill="#12213C" d="M421.047 200.241C424.275 200.337 429.185 201.221 431.224 203.96C429.936 204.383 429.138 203.604 427.579 202.852C424.671 201.339 420.871 202.761 417.143 202.775C418.09 201.433 419.514 200.98 421.047 200.241Z"/><path fill="#12213C" d="M451.562 204.241C454.652 204.027 458.84 203.901 460.638 206.87C459.123 207.286 458.464 206.456 456.707 205.483C453.923 205.558 451.324 206.967 447.779 206.826C448.674 205.389 449.982 205.005 451.562 204.241Z"/><path fill="#12213C" d="M537.136 378.944C545.459 377.715 564.534 377.896 573.489 377.765C587.998 377.578 602.509 377.619 617.017 377.889C643.366 378.271 650.907 373.513 659.986 401.735C667.213 424.203 674.87 447.957 682.917 470.112C684.397 470.253 686.006 470.169 687.033 471.133C685.744 471.729 685.843 471.706 684.424 471.609L683.63 472.387C684.744 477.854 691.009 495.711 693.014 501.605L711.887 557.679C714.85 566.53 719.743 579.716 721.779 588.385C719.869 592.54 717.752 597.309 713.152 599.07C708.612 600.807 631.287 600.728 620.203 600.139C615.041 599.865 606.884 599.72 602.22 597.397C599.39 595.987 596.854 589.935 595.648 587.07C592.067 578.566 589.847 569.28 587.017 560.496C583.11 548.368 578.639 536.407 574.928 524.218C573.844 520.658 571.74 515.751 572.255 512.046L572.034 511.136C573.362 506.287 572.383 504.916 570.663 500.183L567.378 499.079C569.876 496.925 576.587 490.012 573.18 486.225C568.901 481.468 561.427 483.96 556.026 484.282C553.465 484.435 550.414 484.091 547.735 483.758C545.733 482.808 540.701 484.406 538.362 482.758C543.999 482.608 549.636 482.511 555.274 482.467C552.595 474.841 555.053 471.93 546.25 471.728C548.215 471.276 549.199 470.955 551.089 470.245C550.865 467.968 547.316 458.39 546.314 455.298L534.631 419.279C532.091 411.487 529.008 402.945 527.484 394.95C526.591 390.267 527.018 387.996 529.746 384.248L532.169 383.299L537.136 378.944Z"/><path fill="#F4F2ED" d="M532.169 383.299C532.139 383.47 532.104 383.64 532.079 383.812C530.599 393.962 551.408 451.473 556.346 466.058C557.831 470.445 561.768 478.093 561.632 482.434L560.837 482.885C556.922 479.125 530.315 392.395 529.746 384.248L532.169 383.299Z"/><path fill="#F4F2ED" d="M570.663 500.183C575.225 503.824 576.209 507.104 572.255 512.046L572.034 511.136C573.362 506.287 572.383 504.916 570.663 500.183Z"/><path fill="#F4F2ED" d="M552.072 420.052C551.616 418.937 551.178 417.815 550.756 416.687C548.587 410.922 543.01 398.202 546.012 392.311C546.724 390.913 547.345 390.734 548.801 390.295C558.752 387.293 635.487 387.679 641.559 391.208C649.893 396.053 652.356 411.056 654.783 419.808C668.903 459.938 682.3 500.319 694.968 540.932C697.662 549.987 700.575 557.773 703.884 566.622C705.266 570.291 711.177 583.271 704.39 584.716C697.039 586.282 688.313 586.441 680.752 586.791C657.938 587.704 635.107 588.146 612.274 588.118C603.91 582.301 603.804 578.878 600.568 569.042C597.479 560.409 594.775 550.934 592.085 542.122C587.03 529.47 582.857 514.748 578.639 501.723C569.828 474.514 561.834 446.943 552.072 420.052Z"/><path fill="#00B79F" d="M694.968 540.932C697.662 549.987 700.575 557.773 703.884 566.622C705.266 570.291 711.177 583.271 704.39 584.716C697.039 586.282 688.313 586.441 680.752 586.791C657.938 587.704 635.107 588.146 612.274 588.118C603.91 582.301 603.804 578.878 600.568 569.042C597.479 560.409 594.775 550.934 592.085 542.122C625.244 542.193 661.7 541.526 694.968 540.932Z"/><path fill="#F4F2ED" d="M703.884 566.622C705.266 570.291 711.177 583.271 704.39 584.716C697.039 586.282 688.313 586.441 680.752 586.791C657.938 587.704 635.107 588.146 612.274 588.118C603.91 582.301 603.804 578.878 600.568 569.042C605.443 567.626 632.147 567.325 638.6 567.244L703.884 566.622Z"/><path fill="#FE8033" d="M552.072 420.052C551.616 418.937 551.178 417.815 550.756 416.687C548.587 410.922 543.01 398.202 546.012 392.311C546.724 390.913 547.345 390.734 548.801 390.295C558.752 387.293 635.487 387.679 641.559 391.208C649.893 396.053 652.356 411.056 654.783 419.808C622.376 419.485 584.323 419.052 552.072 420.052Z"/><path fill="#F4F2ED" d="M573.792 397.129C577.272 397.104 580.724 397.635 584.179 398.072C585 403.38 587.127 404.407 587.92 409.849C583.809 410.905 582.157 410.935 578.019 411.094C576.698 406.413 575.289 401.757 573.792 397.129Z"/><path fill="#F4F2ED" d="M609.633 396.199C611.067 396.514 611.137 396.717 612.083 397.803C612.246 399.781 612.119 401.88 613.881 402.916C615.073 401.711 615.463 401.074 617.028 400.627C618.335 402.355 617.828 402.37 617.47 405.079C618.1 407.185 619.784 408.112 621.599 409.538L620.728 410.284C617.986 410.506 618.77 409.877 615.561 408.432C614.314 409.64 614.219 409.746 612.691 410.534L611.522 409.86C610.37 407.451 609.122 398.906 609.633 396.199Z"/><path fill="#F4F2ED" d="M602.542 400.783C604.54 401.026 605.736 400.952 606.993 402.252C606.525 403.083 606.272 403.573 605.89 404.445C606.281 404.722 606.67 405.003 607.054 405.29C608.872 406.661 609.913 407.115 610.191 409.025C609.086 410.699 608.006 410.842 606.082 411.549C603.783 411.103 602.575 410.77 601.319 408.944L601.84 408.155L604.434 407.947L604.708 407.557C603.001 406.362 601.678 405.652 600.576 403.895C600.922 401.711 600.526 402.544 602.542 400.783Z"/><path fill="#F4F2ED" d="M588.621 401.228C590.037 401.2 591.453 401.194 592.869 401.208C594.92 402.634 592.558 403.469 591.63 406.147C591.995 407.496 592.293 408.598 592.523 409.452C591.906 410.586 592.33 410.081 590.993 410.786L589.695 409.859C588.131 406.637 587.805 404.681 588.621 401.228Z"/><path fill="#F4F2ED" d="M596.542 401.472C600.085 403.67 600.447 407.495 599.087 411.213L597.76 410.215C596.222 407.303 595.715 404.705 596.542 401.472Z"/><path fill="#00B79F" d="M616.312 450.362C643.262 449.914 659.452 481.293 632.685 491.039C606.305 491.759 589.114 461.875 616.312 450.362Z"/><path fill="#F4F2ED" d="M630.466 460.629C632.18 461.578 632.505 461.598 633.254 463.284C632.933 469.306 627.803 476.233 624.514 481.553L617.827 477.518C615.566 475.834 613.58 474.953 614.482 471.922L616.428 471.399C619.017 471.666 620.708 473.418 622.774 475.079C625.356 469.791 627.398 465.626 630.466 460.629Z"/><path fill="#FE8033" d="M753.818 399.045C748.359 397.021 729.796 391.477 732.195 383.803C744.204 371.942 779.278 403.075 787.229 411.499C792.061 416.62 796.158 421.949 799.724 427.987C814.598 453.301 833.693 479.306 850.356 503.639C857.482 514.046 869.713 533.334 877.182 542.066L879.032 529.935C880.378 530.267 884.998 531.489 886.096 531.536C890.312 550.597 877.801 619.851 867.695 639.159C866.883 640.711 866.205 641.272 864.626 641.738L862.835 641.106C851.544 632.574 845.438 621.326 838.032 609.609L818.938 579.628L754.127 478.227C757.512 477.671 772.355 475.281 774.183 473.859L773.733 473.276C770.851 472.703 761.057 476.217 755.571 476.247C741.784 476.32 736.039 470.675 726.708 462.05C737.1 460.805 748.497 460.728 758.61 458.342C772.105 455.158 770.088 444.608 767.057 434.599C772.044 438.11 781.68 445.874 787.952 443.855C783.74 440.182 774.909 442.922 765.824 429.102C759.622 419.667 759.71 403.097 753.818 399.045Z"/><path fill="#12213C" d="M678.208 351.696C689.233 348.148 713.007 346.864 724.692 347.376C730.481 348.17 735.077 348.562 738.631 354.021C743.201 361.042 746.653 374.139 749.251 382.304C763.284 387.307 796.596 412.73 800.074 427.169L799.724 427.987C796.158 421.949 792.061 416.62 787.229 411.499C779.278 403.075 744.204 371.942 732.195 383.803C729.796 391.477 748.359 397.021 753.818 399.045L753.357 400.259C756.586 404.722 757.715 411.698 758.968 417.145L759.089 417.735C761.387 428.433 779.876 455.036 755.758 457.236C741.985 458.492 722.851 463.607 710.255 457.486C709.451 457.022 707.512 454.769 706.993 454.143L706.582 454.993C704.29 450.754 703.673 447.442 702.496 442.798L698.641 439.957C697.051 437.571 696.567 434.396 695.933 431.558C688.225 428.575 687.863 427.228 688.865 419.197C679.743 416.242 675.989 413.96 682.659 404.902C683.048 402.634 680.356 399.506 680.194 397.529C679.542 389.589 681.078 388.509 678.718 380.558C675.652 374.304 673.724 367.554 673.024 360.624C674.937 356.376 675.384 355.495 678.208 351.696Z"/><path fill="#F4F2ED" d="M678.208 351.696C689.233 348.148 713.007 346.864 724.692 347.376L725.071 348.417C731.116 349.824 732.887 350.121 737.622 354.286C740.928 362.894 745.835 375.577 747.019 384.567C741.594 374.253 739.992 363.637 735.727 353.119C731.939 351.71 724.577 349.484 721.198 350.252C713.861 351.919 679.459 349.448 677.887 357.825C675.268 371.784 686.8 389.365 688.425 403.755C684.904 398.017 681.566 386.554 679.45 379.885L678.718 380.558C675.652 374.304 673.724 367.554 673.024 360.624C674.937 356.376 675.384 355.495 678.208 351.696Z"/><path fill="#2B2422" d="M678.208 351.696C689.233 348.148 713.007 346.864 724.692 347.376L725.071 348.417C719.716 348.505 714.64 348.968 709.303 349.464C697.148 350.593 668.593 347.22 676.101 368.227C677.365 371.764 678.389 376.217 679.45 379.885L678.718 380.558C675.652 374.304 673.724 367.554 673.024 360.624C674.937 356.376 675.384 355.495 678.208 351.696Z"/><path fill="#FE8033" d="M682.659 404.902L683.359 407.105C676.752 416.329 686.851 419.726 695.891 413.665L697.223 415.84C706.495 412.721 714.28 414.386 706.424 424.586L709.248 425.306C703.816 427.989 694.773 431.538 699.56 439.084L698.641 439.957C697.051 437.571 696.567 434.396 695.933 431.558C688.225 428.575 687.863 427.228 688.865 419.197C679.743 416.242 675.989 413.96 682.659 404.902Z"/><path fill="#2B2422" d="M682.659 404.902L683.359 407.105C676.752 416.329 686.851 419.726 695.891 413.665L697.223 415.84C693.201 418.219 687.519 421.933 690.624 427.286C696.032 431.193 701.748 427.729 706.424 424.586L709.248 425.306C703.816 427.989 694.773 431.538 699.56 439.084L698.641 439.957C697.051 437.571 696.567 434.396 695.933 431.558C688.225 428.575 687.863 427.228 688.865 419.197C679.743 416.242 675.989 413.96 682.659 404.902Z"/><path fill="#FE8033" d="M683.359 407.105C687.235 404.097 693.863 399.161 698.574 403.642C700.272 407.382 698.166 410.639 695.891 413.665C686.851 419.726 676.752 416.329 683.359 407.105Z"/><path fill="#F4F2ED" d="M758.968 417.145L759.089 417.735C761.387 428.433 779.876 455.036 755.758 457.236C741.985 458.492 722.851 463.607 710.255 457.486C709.451 457.022 707.512 454.769 706.993 454.143C705.035 451.001 704.452 446.392 705.106 442.762C710.316 447.203 705.712 461.042 722.28 458.836C731.587 457.597 758.573 457.853 764.855 451.11C768.17 442.484 761.17 426.998 757.904 418.192L758.968 417.145Z"/><path fill="#FE8033" d="M709.248 425.306C711.524 425.657 711.863 425.686 713.592 427.178C716.403 433.61 707.778 443.035 700.532 439.561C700.207 439.405 699.883 439.246 699.56 439.084C694.773 431.538 703.816 427.989 709.248 425.306Z"/><path fill="#F4F2ED" d="M753.357 400.259C756.586 404.722 757.715 411.698 758.968 417.145L757.904 418.192C756.16 413.612 752.389 404.807 753.357 400.259Z"/><path fill="#12213C" d="M579.034 543.947C582.175 546.884 591.841 591.745 599.627 596.891C603.382 599.373 603.93 600.712 609.367 601.602C616.534 602.774 623.949 601.972 631.192 602.037C644.952 602.159 658.414 602.377 672.158 601.861C670.563 607.78 669.034 614.196 667.954 620.248C665.851 632.036 660.099 631.455 650.078 631.39C626.213 631.127 602.277 631.57 578.405 631.396C570.517 631.339 563.987 631.584 556.185 630.116C557.135 623.893 560.18 613.854 561.879 607.361C567.479 585.951 574.118 565.565 579.034 543.947Z"/><path fill="#F4F2ED" d="M811.817 333.443L888.077 333.448C888.025 336.29 887.754 341.634 888.255 344.234C879.248 343.682 867.807 343.966 858.632 343.96L811.76 343.986L811.817 333.443Z"/><path fill="#2B2422" fill-opacity="0.96862745" d="M753.818 399.045C759.71 403.097 759.622 419.667 765.824 429.102C774.909 442.922 783.74 440.182 787.952 443.855C781.68 445.874 772.044 438.11 767.057 434.599C770.088 444.608 772.105 455.158 758.61 458.342C748.497 460.728 737.1 460.805 726.708 462.05C736.039 470.675 741.784 476.32 755.571 476.247C761.057 476.217 770.851 472.703 773.733 473.276L774.183 473.859C772.355 475.281 757.512 477.671 754.127 478.227L818.938 579.628L838.032 609.609C845.438 621.326 851.544 632.574 862.835 641.106L860.196 640.888C849.455 633.526 826.315 593.919 817.87 580.819C795.818 546.834 774.082 512.645 752.664 478.256C744.4 477.357 742.274 475.929 735.389 471.693C721.253 471.845 697.94 472.73 684.424 471.609C685.843 471.706 685.744 471.729 687.033 471.133C686.006 470.169 684.397 470.253 682.917 470.112C699.435 469.872 716.328 469.994 732.874 469.962C730.192 467.612 728.28 465.297 725.962 462.62C717.062 462.553 712.222 462.595 706.582 454.993L706.993 454.143C707.512 454.769 709.451 457.022 710.255 457.486C722.851 463.607 741.985 458.492 755.758 457.236C779.876 455.036 761.387 428.433 759.089 417.735L758.968 417.145C757.715 411.698 756.586 404.722 753.357 400.259L753.818 399.045Z"/><path fill="#FE8033" d="M674.004 311.345C676.734 311.128 680.777 311.66 681.641 314.637C676.778 322.636 655.316 308.891 637.713 343.011C636.479 344.667 636.266 345.146 634.313 345.68C630.075 342.641 635.58 332.872 637.975 329.805C647.442 317.682 659.39 313.356 674.004 311.345Z"/><path fill="#FE8033" d="M671.189 325.06C675.445 324.778 677.729 324.799 681.542 326.91L681.576 327.958C672.309 335.765 664.228 324.936 651.628 345.896L649.912 349.276C647.944 350.441 648.79 350.321 646.748 349.859L645.794 348.212C644.667 335.115 660.778 327.908 671.189 325.06Z"/><path fill="#FE8033" d="M677.355 337.544C679.173 337.891 680.666 338.421 681.743 339.903C680.391 344.837 671.464 344.609 667.542 347.335C666.863 347.806 662.296 354.896 661.499 356.083C659.341 356.36 657.889 355.659 656.821 353.84C657.178 345.213 669.784 338.807 677.355 337.544Z"/><path fill="#7D757F" fill-opacity="0.40784314" d="M1259.39 470.383C1263.53 469.824 1273.28 469.522 1277.13 470.736C1272.6 470.745 1263.5 470.99 1259.39 470.383Z"/><path fill="#FE8033" d="M728.751 115.71C743.761 106.32 761.837 103.145 779.148 106.856C808.872 113.509 823.291 137.477 827.745 165.825C815.556 165.391 803.357 165.304 791.163 165.564C787.217 166.562 778.159 166.38 773.67 166.388L736.655 166.402C732.646 166.403 721.477 166.2 717.871 166.795C715.564 167.127 702.506 166.741 699.411 166.699C700.624 145.177 709.831 127.615 727.451 115.168L728.751 115.71Z"/><path fill="#3B1D11" d="M727.451 115.168L728.751 115.71C710.282 129.003 704.851 143.653 700.659 165.388L791.163 165.564C787.217 166.562 778.159 166.38 773.67 166.388L736.655 166.402C732.646 166.403 721.477 166.2 717.871 166.795C715.564 167.127 702.506 166.741 699.411 166.699C700.624 145.177 709.831 127.615 727.451 115.168Z"/><path fill="#3B1D11" d="M796.881 125.759C797.46 125.962 798.015 126.231 798.535 126.559C803.873 129.961 806.696 138.719 807.831 144.575C808.163 144.858 797.895 127.355 796.881 125.759Z"/><path fill="#2B2422" fill-opacity="0.86666667" d="M763.868 0L765.347 0L765.215 103.499C774.292 104.683 781.722 105.684 790.245 109.149C813.301 118.52 828.965 142.095 828.816 167.005C803.444 167.484 778.065 167.605 752.689 167.367C745.946 167.344 723.593 167.657 717.871 166.795C721.477 166.2 732.646 166.403 736.655 166.402L773.67 166.388C778.159 166.38 787.217 166.562 791.163 165.564C803.357 165.304 815.556 165.391 827.745 165.825C823.291 137.477 808.872 113.509 779.148 106.856C761.837 103.145 743.761 106.32 728.751 115.71L727.451 115.168C737.527 107.269 751.168 104.696 763.496 103.563C764.627 70.1414 763.909 33.6205 763.868 0Z"/></svg>